# xmcd
#
# Track frame offsets: 
#        150
#        18845
#        41026
#        61734
#        85559
#        101853
#        123947
#        138188
#        160989
#        187430
#        207646
#
# Disc length: 2984 seconds
#
# Revision: 1
# Processed by: cddbd v1.5.1PL2 Copyright (c) Steve Scherf et al.
# Submitted via: ExactAudioCopy v0.95b3
#
DISCID=970ba60b
DTITLE=Ten Mile Tide - Midnight Is Early
DYEAR=2004
DGENRE=
TTITLE0=Carry On
TTITLE1=Scream Out At The Sky
TTITLE2=Alive On The Wall
TTITLE3=All Our Ships
TTITLE4=Sodium Lights
TTITLE5=Sweet Life
TTITLE6=All The Days
TTITLE7=Don't Follow
TTITLE8=Hurricane
TTITLE9=My Child
TTITLE10=Drive Me Away
EXTD=
EXTT0=
EXTT1=
EXTT2=
EXTT3=
EXTT4=
EXTT5=
EXTT6=
EXTT7=
EXTT8=
EXTT9=
EXTT10=
PLAYORDER=
